<svg width="209" height="189" viewBox="0 0 209 189" fill="none" xmlns="http://www.w3.org/2000/svg">
<path d="M166.858 184.747H42.1427C35.7467 185.021 29.3924 183.594 23.732 180.612C18.0715 177.631 13.3086 173.202 9.93124 167.78C6.55391 162.358 4.68379 156.137 4.51285 149.756C4.34202 143.375 5.8766 137.065 8.95888 131.471L71.3161 23.4196C74.7731 17.73 79.6436 13.0257 85.4565 9.76055C91.2692 6.49543 97.8278 4.77991 104.5 4.77991C111.171 4.77991 117.731 6.49543 123.544 9.76055C129.356 13.0257 134.228 17.73 137.684 23.4196L200.042 131.471C203.124 137.065 204.658 143.375 204.487 149.756C204.317 156.137 202.447 162.358 199.069 167.78C195.692 173.202 190.928 177.631 185.268 180.612C179.607 183.594 173.253 185.021 166.858 184.747Z" stroke="black" stroke-width="8" stroke-linecap="round" stroke-linejoin="round"/>
<path d="M93.2788 143.765C93.2788 142.287 93.5725 140.822 94.143 139.458C94.7134 138.093 95.5495 136.854 96.6032 135.814C97.6559 134.773 98.906 133.951 100.279 133.394C101.654 132.837 103.124 132.557 104.607 132.57C106.795 132.61 108.922 133.291 110.724 134.529C112.524 135.768 113.92 137.509 114.735 139.533C115.549 141.558 115.747 143.777 115.303 145.913C114.859 148.049 113.794 150.007 112.24 151.544C110.686 153.079 108.712 154.123 106.565 154.547C104.419 154.971 102.195 154.754 100.172 153.924C98.1481 153.094 96.4157 151.688 95.1896 149.88C93.9635 148.074 93.2989 145.947 93.2788 143.765ZM96.8879 116.478L95.4844 64.3013C95.351 63.047 95.4834 61.7789 95.8744 60.5792C96.2643 59.3795 96.903 58.2749 97.7491 57.3373C98.5952 56.3996 99.6298 55.65 100.785 55.1367C101.941 54.6236 103.192 54.3583 104.457 54.3583C105.722 54.3583 106.973 54.6236 108.128 55.1367C109.284 55.65 110.318 56.3996 111.164 57.3373C112.01 58.2749 112.65 59.3795 113.04 60.5792C113.43 61.7789 113.563 63.047 113.43 64.3013L112.126 116.478C112.126 118.492 111.323 120.425 109.895 121.849C108.465 123.273 106.527 124.074 104.507 124.074C102.486 124.074 100.548 123.273 99.1195 121.849C97.6909 120.425 96.8879 118.492 96.8879 116.478Z" fill="black"/>
</svg>
