<svg width="243" height="260" viewBox="0 0 243 260" fill="none" xmlns="http://www.w3.org/2000/svg">
<path fill-rule="evenodd" clip-rule="evenodd" d="M26 208L52 156V86.6667C52 48.3773 83.044 17.3333 121.333 17.3333C159.623 17.3333 190.667 48.3773 190.667 86.6667V156L216.667 208H26ZM121.333 242.667C110.023 242.667 100.507 235.413 96.9279 225.333H145.739C142.159 235.413 132.643 242.667 121.333 242.667ZM208 156V86.6667C208 38.8093 169.191 0 121.333 0C73.476 0 34.6667 38.8093 34.6667 86.6667V156L0 225.333H78.8755C82.8881 245.111 100.369 260 121.333 260C142.298 260 159.779 245.111 163.791 225.333H242.667L208 156Z" fill="#202020"/>
</svg>
