<svg width="36" height="22" viewBox="0 0 36 22" fill="none" xmlns="http://www.w3.org/2000/svg">
<path fill-rule="evenodd" clip-rule="evenodd" d="M10.1837 12.3107C10.5062 10.8409 11.2365 9.49185 12.2908 8.4184C13.3451 7.34496 14.6806 6.59063 16.144 6.242C17.6074 5.89338 19.1395 5.96458 20.5643 6.44744C21.9891 6.9303 23.249 7.80525 24.1992 8.97185C25.3663 8.34128 26.6726 8.01257 27.9991 8.01561V7.9956C27.9976 6.204 27.3951 4.46471 26.2881 3.05628C25.1811 1.64785 23.6336 0.651768 21.8935 0.227555C20.1533 -0.196658 18.3212 -0.0244582 16.6905 0.716576C15.0598 1.45761 13.7249 2.72461 12.8996 4.31466C12.29 4.09688 11.6468 3.98853 10.9996 3.99457C9.40838 3.99457 7.88231 4.62688 6.75713 5.75238C5.63195 6.87789 4.99983 8.40441 4.99983 9.99611C3.67379 9.99611 2.40207 10.523 1.46442 11.461C0.526766 12.3989 0 13.671 0 14.9974C0 16.3238 0.526766 17.5959 1.46442 18.5338C2.40207 19.4718 3.67379 19.9987 4.99983 19.9987H6.30979C6.11172 19.3713 6.00727 18.7181 5.9998 18.0602C5.99975 16.7824 6.40471 15.5375 7.15646 14.5045C7.90822 13.4714 8.96806 12.7033 10.1837 12.3107Z" fill="#606060"/>
<path fill-rule="evenodd" clip-rule="evenodd" d="M35.9988 17.9982C36.0028 18.1262 35.9968 18.2522 35.9788 18.3783C35.9788 18.3783 35.9988 18.3783 35.9788 18.3983C35.8771 19.3841 35.4142 20.2975 34.6794 20.9623C33.9446 21.6272 32.9898 21.9965 31.999 21.9992H12.5796C12.5189 22.0025 12.4581 21.9957 12.3996 21.9792C12.3796 21.9992 12.3796 21.9792 12.3796 21.9792C11.8394 22.0334 11.2939 21.977 10.7762 21.8135C10.2585 21.6499 9.77948 21.3827 9.36835 21.0281C8.95722 20.6734 8.62258 20.2387 8.38479 19.7506C8.14701 19.2624 8.01106 18.7309 7.98524 18.1884C7.95942 17.646 8.04426 17.104 8.23459 16.5954C8.42492 16.0868 8.71677 15.6223 9.09234 15.2302C9.46792 14.8381 9.91937 14.5265 10.4192 14.3145C10.919 14.1025 11.4567 13.9945 11.9996 13.9971C12.0046 12.5925 12.502 11.2341 13.4051 10.1585C14.3082 9.08288 15.5599 8.35823 16.9422 8.11073C18.3245 7.86323 19.7498 8.10856 20.9698 8.80399C22.1899 9.49942 23.1275 10.6009 23.6192 11.9166C24.3444 11.1322 25.2665 10.5565 26.2895 10.2494C27.3125 9.94227 28.3991 9.91492 29.4362 10.1702C30.4734 10.4255 31.4232 10.9541 32.1869 11.701C32.9507 12.4479 33.5004 13.3858 33.7789 14.4172C34.4453 14.7485 35.0061 15.2591 35.3983 15.8917C35.7905 16.5243 35.9984 17.2538 35.9988 17.9982Z" fill="#606060"/>
</svg>
