<svg width="276" height="276" viewBox="0 0 276 276" fill="none" xmlns="http://www.w3.org/2000/svg">
<path d="M152.445 8C152.445 8 184.223 10.8889 224.667 51.3334C265.112 91.778 268.001 123.556 268.001 123.556" stroke="#202020" stroke-width="15" stroke-linecap="round"/>
<path d="M155.435 59.0706C155.435 59.0706 169.735 63.1562 191.184 84.6051C212.633 106.054 216.719 120.353 216.719 120.353" stroke="#202020" stroke-width="15" stroke-linecap="round"/>
<path d="M95.21 55.9003L104.584 72.6982C113.045 87.8574 109.649 107.744 96.3237 121.068C96.3237 121.068 80.1629 137.232 109.465 166.535C138.759 195.829 154.932 179.677 154.932 179.677C168.257 166.352 188.143 162.956 203.302 171.416L220.1 180.791C242.991 193.565 245.694 225.667 225.574 245.788C213.484 257.878 198.673 267.286 182.3 267.905C154.739 268.951 107.931 261.976 60.978 215.023C14.0253 168.069 7.04973 121.262 8.09464 93.7003C8.71532 77.3277 18.1227 62.5167 30.2129 50.4267C50.3333 30.3063 82.4349 33.0097 95.21 55.9003Z" stroke="#202020" stroke-width="15" stroke-linecap="round"/>
</svg>
