<svg width="201" height="201" viewBox="0 0 201 201" fill="none" xmlns="http://www.w3.org/2000/svg">
<path d="M100.5 0.779907C80.7219 0.779907 61.3879 6.6448 44.943 17.6329C28.4981 28.6211 15.6809 44.2389 8.11209 62.5115C0.543328 80.7841 -1.437 100.891 2.42152 120.289C6.28004 139.687 15.8041 157.505 29.7894 171.491C43.7746 185.476 61.5929 195 80.991 198.858C100.389 202.717 120.496 200.737 138.768 193.168C157.041 185.599 172.659 172.782 183.647 156.337C194.635 139.892 200.5 120.558 200.5 100.78C200.5 87.6477 197.913 74.6441 192.888 62.5115C187.862 50.379 180.497 39.3551 171.211 30.0692C161.925 20.7834 150.901 13.4174 138.768 8.39195C126.636 3.36648 113.632 0.779907 100.5 0.779907ZM158 146.68L145.5 159.18C144.489 160.181 143.123 160.743 141.7 160.743C140.277 160.743 138.911 160.181 137.9 159.18L87.9 109.68C81.3229 112.032 74.1969 112.385 67.4191 110.696C60.6414 109.007 54.515 105.35 49.811 100.187C45.107 95.0229 42.0358 88.583 40.984 81.6776C39.9322 74.7722 40.9468 67.7099 43.9 61.3799L67.8 84.6799L84.1 68.3799L60.5 45.0799C67.0975 42.0862 74.4448 41.1528 81.5812 42.4017C88.7177 43.6506 95.3113 47.0236 100.5 52.0799C105.383 56.8449 108.761 62.9364 110.219 69.6013C111.676 76.2661 111.148 83.2119 108.7 89.5799L158.1 139.08C158.658 139.547 159.106 140.132 159.41 140.794C159.714 141.455 159.866 142.176 159.857 142.904C159.847 143.631 159.676 144.348 159.354 145.001C159.033 145.654 158.571 146.228 158 146.68Z" fill="black"/>
</svg>
