<svg width="32" height="49" viewBox="0 0 32 49" fill="none" xmlns="http://www.w3.org/2000/svg">
<path d="M29.29 12.4998C29.29 7.06452 23.3425 1 16 1C8.65746 1 2.70996 7.06452 2.70996 12.4998C2.70996 17.9352 8.65746 20.7097 16 20.7097C23.3425 20.7097 29.29 17.9427 29.29 12.4998Z" fill="#FBE969" stroke="#606060" stroke-linecap="round" stroke-linejoin="round"/>
<path d="M25.75 11.8706C25.75 8.49726 21.385 4.73726 16 4.73726C10.615 4.73726 6.25 8.52758 6.25 11.8706C6.25 15.2137 10.615 16.9724 16 16.9724C21.385 16.9724 25.75 15.2516 25.75 11.8706Z" fill="#606060" stroke="#606060" stroke-linecap="round" stroke-linejoin="round"/>
<path d="M29.5 29.8064C29.5 17.6774 23.455 23.7419 16 23.7419C8.545 23.7419 2.5 17.6774 2.5 29.8064C2.5 41.9355 8.545 48 16 48C23.455 48 29.5 41.9355 29.5 29.8064Z" fill="#FBE969" stroke="#606060" stroke-linecap="round" stroke-linejoin="round"/>
<path opacity="0.1" d="M15.9998 41.1774C9.30982 41.1774 3.77482 36.2879 2.70232 26.5164C2.55849 27.607 2.49082 28.7063 2.49982 29.8064C2.49982 41.9355 8.54482 48 15.9998 48C23.4548 48 29.4998 41.9355 29.4998 29.8064C29.5081 28.7114 29.4404 27.6171 29.2973 26.5316C28.2248 36.2879 22.6898 41.1774 15.9998 41.1774Z" fill="#606060"/>
<path d="M10.75 30.5645C11.5784 30.5645 12.25 29.8857 12.25 29.0484C12.25 28.2111 11.5784 27.5323 10.75 27.5323C9.92157 27.5323 9.25 28.2111 9.25 29.0484C9.25 29.8857 9.92157 30.5645 10.75 30.5645Z" fill="#587B7F"/>
<path d="M5.5 29.8065C5.5 23.9466 4.495 22.2258 3.25 22.2258C2.005 22.2258 1 21.6724 1 27.5323C1 33.3921 2.005 43.4516 3.25 43.4516C4.495 43.4516 5.5 35.6663 5.5 29.8065Z" fill="#FBE969" stroke="#606060" stroke-linecap="round" stroke-linejoin="round"/>
<path d="M26.5 29.8065C26.5 23.9466 27.505 22.2258 28.75 22.2258C29.995 22.2258 31 21.6724 31 27.5323C31 33.3921 29.995 43.4516 28.75 43.4516C27.505 43.4516 26.5 35.6663 26.5 29.8065Z" fill="#FBE969" stroke="#606060" stroke-linecap="round" stroke-linejoin="round"/>
<path d="M20.5157 13.3157C21.9125 12.6782 22.7036 11.3974 22.2825 10.4549C21.8615 9.5124 20.3879 9.26513 18.9911 9.9026C17.5943 10.5401 16.8032 11.8209 17.2242 12.7634C17.6453 13.7058 19.1189 13.9531 20.5157 13.3157Z" fill="white"/>
<path d="M14.7806 12.7708C15.2016 11.8283 14.4106 10.5475 13.0138 9.91003C11.617 9.27257 10.1433 9.51984 9.72229 10.4623C9.30127 11.4048 10.0923 12.6856 11.4891 13.3231C12.8859 13.9606 14.3596 13.7133 14.7806 12.7708Z" fill="white"/>
</svg>
