<svg width="260" height="260" viewBox="0 0 260 260" fill="none" xmlns="http://www.w3.org/2000/svg">
<path d="M103.026 1.88834C108.906 0.628156 114.192 5.31064 114.192 11.3244V135.808C114.192 141.331 118.669 145.808 124.192 145.808H248.676C254.689 145.808 259.372 151.094 258.112 156.974C245.493 215.855 193.154 260 130.505 260C58.429 260 0 201.572 0 129.495C0 66.8458 44.1453 14.5069 103.026 1.88834Z" fill="#202020"/>
<path d="M157.982 1.88799C152.101 0.627879 146.818 5.31065 146.818 11.3244V103.182C146.818 108.705 151.295 113.182 156.818 113.182H248.676C254.689 113.182 259.372 107.899 258.112 102.018C247.393 51.9954 208.005 12.6076 157.982 1.88799Z" fill="#202020"/>
</svg>
