<svg width="201" height="201" viewBox="0 0 201 201" fill="none" xmlns="http://www.w3.org/2000/svg">
<path d="M118.213 170.612H82.4904C79.2329 170.612 76.6076 168.049 76.6076 164.912V160.905C76.6463 157.462 76.4722 155.043 76.098 153.693C74.092 146.574 68.7833 140.605 63.6424 134.818C61.9459 132.924 60.3462 131.118 58.8755 129.299C51.477 120.18 47.5422 109.255 47.5422 97.6679C47.5422 69.3803 71.3054 46.374 100.5 46.374C129.688 46.374 153.444 69.3803 153.444 97.6679C153.444 109.262 149.529 120.199 142.111 129.312C140.815 130.924 139.318 132.612 137.757 134.393C132.494 140.393 126.617 147.087 124.592 154.155C124.237 155.418 124.063 157.687 124.089 160.862V164.899C124.089 168.049 121.464 170.612 118.213 170.612ZM88.386 159.199H112.33C112.394 154.762 112.839 152.574 113.246 151.149C115.974 141.63 122.734 133.899 128.701 127.112C130.268 125.324 131.642 123.762 132.861 122.274C138.622 115.174 141.673 106.68 141.673 97.6741C141.673 75.6741 123.212 57.774 100.506 57.774C77.8009 57.774 59.3271 75.6741 59.3271 97.6741C59.3271 106.662 62.3716 115.162 68.1383 122.262C69.4993 123.949 70.9894 125.605 72.5697 127.374C78.0074 133.493 84.748 141.074 87.4701 150.705C87.87 152.212 88.3344 154.505 88.386 159.199Z" fill="black"/>
<path d="M118.212 185.706H82.4902C79.2327 185.706 76.6074 183.149 76.6074 179.993C76.6074 176.843 79.2327 174.299 82.4902 174.299H118.212C121.463 174.299 124.089 176.843 124.089 179.993C124.089 183.149 121.463 185.706 118.212 185.706Z" fill="black"/>
<path d="M109.286 200.78H91.4245C88.167 200.78 85.5288 198.224 85.5288 195.08C85.5288 191.93 88.167 189.367 91.4245 189.367H109.286C112.524 189.367 115.168 191.93 115.168 195.08C115.168 198.224 112.524 200.78 109.286 200.78Z" fill="black"/>
<path d="M194.624 103.373H171.093C167.842 103.373 165.197 100.83 165.197 97.6734C165.197 94.5234 167.842 91.9734 171.093 91.9734H194.624C197.875 91.9734 200.5 94.5234 200.5 97.6734C200.5 100.83 197.875 103.373 194.624 103.373Z" fill="black"/>
<path d="M29.9137 103.373H6.37629C3.1253 103.373 0.5 100.83 0.5 97.6734C0.5 94.5234 3.1253 91.9734 6.37629 91.9734H29.9072C33.1582 91.9734 35.8029 94.5234 35.8029 97.6734C35.8093 100.83 33.1647 103.373 29.9137 103.373Z" fill="black"/>
<path d="M100.5 34.9925C97.2427 34.9925 94.6045 32.4487 94.6045 29.2925V6.47992C94.6045 3.33616 97.2427 0.779907 100.5 0.779907C103.758 0.779907 106.383 3.33616 106.383 6.47992V29.2862C106.383 32.4425 103.758 34.9925 100.5 34.9925Z" fill="black"/>
<path d="M167.029 167.861C165.533 167.861 164.03 167.305 162.875 166.186L146.24 150.061C143.943 147.843 143.943 144.224 146.24 141.993C148.543 139.768 152.264 139.78 154.561 142.005L171.196 158.124C173.499 160.355 173.499 163.974 171.196 166.199C170.048 167.318 168.552 167.861 167.029 167.861Z" fill="black"/>
<path d="M50.574 55.0235C49.0775 55.0235 47.5681 54.4673 46.4071 53.3485L29.7845 37.236C27.4817 35.0047 27.4817 31.386 29.7845 29.1547C32.0872 26.9297 35.8091 26.9297 38.1054 29.1547L54.741 45.2735C57.0437 47.4985 57.0437 51.1235 54.741 53.3485C53.5928 54.4673 52.0899 55.0235 50.574 55.0235Z" fill="black"/>
<path d="M33.945 167.861C32.442 167.861 30.9391 167.318 29.7845 166.199C27.4817 163.974 27.4817 160.355 29.7845 158.124L46.4329 141.993C48.7163 139.768 52.4382 139.768 54.741 141.993C57.0437 144.224 57.0437 147.843 54.741 150.074L38.1054 166.199C36.9508 167.311 35.4543 167.861 33.945 167.861Z" fill="black"/>
<path d="M150.413 55.0241C148.91 55.0241 147.407 54.4679 146.246 53.3491C143.963 51.1241 143.963 47.5116 146.246 45.2866L162.882 29.1678C165.165 26.9428 168.913 26.9303 171.203 29.1553C173.505 31.3866 173.505 34.9928 171.203 37.2241L154.58 53.3366C153.432 54.4554 151.929 55.0241 150.413 55.0241Z" fill="black"/>
</svg>
