<svg width="48" height="75" viewBox="0 0 48 75" fill="none" xmlns="http://www.w3.org/2000/svg">
<path d="M44.1787 18.9253C44.1787 10.453 35.1012 1 23.8945 1C12.6879 1 3.61035 10.453 3.61035 18.9253C3.61035 27.3976 12.6879 31.7224 23.8945 31.7224C35.1012 31.7224 44.1787 27.4095 44.1787 18.9253Z" fill="#FBE969" stroke="#606060" stroke-linecap="round" stroke-linejoin="round"/>
<path d="M38.775 17.9446C38.775 12.6863 32.1129 6.82543 23.8939 6.82543C15.6749 6.82543 9.0127 12.7336 9.0127 17.9446C9.0127 23.1556 15.6749 25.897 23.8939 25.897C32.1129 25.897 38.775 23.2147 38.775 17.9446Z" fill="#606060" stroke="#606060" stroke-linecap="round" stroke-linejoin="round"/>
<path d="M44.4985 45.902C44.4985 26.9959 35.2721 36.4489 23.8938 36.4489C12.5154 36.4489 3.28906 26.9959 3.28906 45.902C3.28906 64.8081 12.5154 74.2612 23.8938 74.2612C35.2721 74.2612 44.4985 64.8081 44.4985 45.902Z" fill="#FBE969" stroke="#606060" stroke-linecap="round" stroke-linejoin="round"/>
<path opacity="0.1" d="M23.894 63.6265C13.6832 63.6265 5.23529 56.0049 3.59837 40.7737C3.37884 42.4735 3.27556 44.1872 3.28929 45.902C3.28929 64.8081 12.5156 74.2611 23.894 74.2611C35.2724 74.2611 44.4987 64.8081 44.4987 45.902C44.5114 44.1951 44.4081 42.4894 44.1896 40.7973C42.5527 56.0049 34.1048 63.6265 23.894 63.6265Z" fill="#606060"/>
<path d="M15.8812 47.0836C17.1456 47.0836 18.1706 46.0255 18.1706 44.7203C18.1706 43.4152 17.1456 42.3571 15.8812 42.3571C14.6168 42.3571 13.5918 43.4152 13.5918 44.7203C13.5918 46.0255 14.6168 47.0836 15.8812 47.0836Z" fill="#587B7F"/>
<path d="M7.86823 45.902C7.86823 36.768 6.33433 34.0857 4.43412 34.0857C2.53391 34.0857 1 33.2231 1 42.3571C1 51.4911 2.53391 67.1714 4.43412 67.1714C6.33433 67.1714 7.86823 55.036 7.86823 45.902Z" fill="#FBE969" stroke="#606060" stroke-linecap="round" stroke-linejoin="round"/>
<path d="M39.9199 45.902C39.9199 36.768 41.4538 34.0857 43.354 34.0857C45.2542 34.0857 46.7882 33.2231 46.7882 42.3571C46.7882 51.4911 45.2542 67.1714 43.354 67.1714C41.4538 67.1714 39.9199 55.036 39.9199 45.902Z" fill="#FBE969" stroke="#606060" stroke-linecap="round" stroke-linejoin="round"/>
<path d="M30.7868 20.197C32.9187 19.2034 34.1261 17.2069 33.4835 15.7378C32.8409 14.2687 30.5917 13.8833 28.4598 14.8769C26.3279 15.8706 25.1205 17.867 25.7631 19.3361C26.4057 20.8052 28.6549 21.1906 30.7868 20.197Z" fill="white"/>
<path d="M22.0333 19.3477C22.6759 17.8786 21.4685 15.8821 19.3366 14.8885C17.2047 13.8948 14.9555 14.2803 14.3129 15.7494C13.6703 17.2185 14.8777 19.2149 17.0096 20.2086C19.1415 21.2022 21.3907 20.8168 22.0333 19.3477Z" fill="white"/>
</svg>
