<svg width="48" height="48" viewBox="0 0 48 48" fill="none" xmlns="http://www.w3.org/2000/svg">
<rect width="48" height="48" fill="#FBE969"/>
<path d="M25.3426 27.586L29.2926 23.636C29.4812 23.4538 29.7338 23.353 29.996 23.3553C30.2582 23.3576 30.509 23.4628 30.6944 23.6482C30.8798 23.8336 30.985 24.0844 30.9873 24.3466C30.9895 24.6088 30.8888 24.8614 30.7066 25.05L25.0496 30.707C24.9569 30.8002 24.8468 30.8741 24.7254 30.9246C24.6041 30.9751 24.474 31.001 24.3426 31.001C24.2112 31.001 24.0811 30.9751 23.9597 30.9246C23.8384 30.8741 23.7282 30.8002 23.6356 30.707L17.9786 25.05C17.8831 24.9578 17.8069 24.8474 17.7545 24.7254C17.7021 24.6034 17.6745 24.4722 17.6733 24.3394C17.6722 24.2066 17.6975 24.0749 17.7478 23.952C17.7981 23.8291 17.8723 23.7175 17.9662 23.6236C18.0601 23.5297 18.1717 23.4555 18.2946 23.4052C18.4175 23.3549 18.5492 23.3296 18.682 23.3307C18.8148 23.3319 18.946 23.3595 19.068 23.4119C19.19 23.4643 19.3003 23.5405 19.3926 23.636L23.3426 27.586V18C23.3426 17.7348 23.4479 17.4804 23.6355 17.2929C23.823 17.1054 24.0774 17 24.3426 17C24.6078 17 24.8622 17.1054 25.0497 17.2929C25.2372 17.4804 25.3426 17.7348 25.3426 18V27.586Z" fill="#697077"/>
</svg>
