<svg width="14" height="14" viewBox="0 0 14 14" fill="none" xmlns="http://www.w3.org/2000/svg">
<path d="M8.34259 10.586L12.2926 6.636C12.4812 6.45384 12.7338 6.35305 12.996 6.35533C13.2582 6.3576 13.509 6.46277 13.6944 6.64818C13.8798 6.83359 13.985 7.0844 13.9873 7.3466C13.9895 7.6088 13.8888 7.8614 13.7066 8.05L8.04959 13.707C7.95694 13.8002 7.84678 13.8741 7.72545 13.9246C7.60411 13.9751 7.474 14.001 7.34259 14.001C7.21118 14.001 7.08107 13.9751 6.95974 13.9246C6.83841 13.8741 6.72825 13.8002 6.63559 13.707L0.978593 8.05C0.883082 7.95775 0.806901 7.84741 0.754492 7.7254C0.702083 7.6034 0.674497 7.47218 0.673343 7.3394C0.672189 7.20662 0.697491 7.07494 0.747771 6.95205C0.798052 6.82915 0.872305 6.7175 0.966198 6.62361C1.06009 6.52971 1.17174 6.45546 1.29464 6.40518C1.41753 6.3549 1.54922 6.3296 1.68199 6.33075C1.81477 6.3319 1.94599 6.35949 2.068 6.4119C2.19 6.46431 2.30035 6.54049 2.39259 6.636L6.34259 10.586V1C6.34259 0.734784 6.44795 0.48043 6.63549 0.292893C6.82302 0.105357 7.07738 0 7.34259 0C7.60781 0 7.86216 0.105357 8.0497 0.292893C8.23724 0.48043 8.34259 0.734784 8.34259 1V10.586Z" fill="#697077"/>
</svg>
